<mxfile host="app.diagrams.net" modified="2024-05-17T01:40:12.516Z" agent="Mozilla/5.0 (Windows NT 10.0; Win64; x64) AppleWebKit/537.36 (KHTML, like Gecko) Chrome/123.0.0.0 Safari/537.36 OPR/109.0.0.0" etag="PqOCe1wMCeVgGcvcPQqP" version="24.4.3" type="github">
  <diagram id="C5RBs43oDa-KdzZeNtuy" name="Page-1">
    <mxGraphModel dx="968" dy="536" grid="1" gridSize="10" guides="1" tooltips="1" connect="1" arrows="1" fold="1" page="1" pageScale="1" pageWidth="827" pageHeight="1169" math="0" shadow="0">
      <root>
        <mxCell id="WIyWlLk6GJQsqaUBKTNV-0" />
        <mxCell id="WIyWlLk6GJQsqaUBKTNV-1" parent="WIyWlLk6GJQsqaUBKTNV-0" />
        <mxCell id="uP9sh8tn6COjkDFqzzyi-2" style="edgeStyle=orthogonalEdgeStyle;rounded=0;orthogonalLoop=1;jettySize=auto;html=1;exitX=0.5;exitY=1;exitDx=0;exitDy=0;entryX=0.5;entryY=0;entryDx=0;entryDy=0;" edge="1" parent="WIyWlLk6GJQsqaUBKTNV-1" source="uP9sh8tn6COjkDFqzzyi-0" target="uP9sh8tn6COjkDFqzzyi-7">
          <mxGeometry relative="1" as="geometry">
            <mxPoint x="138.5" y="100" as="targetPoint" />
          </mxGeometry>
        </mxCell>
        <mxCell id="uP9sh8tn6COjkDFqzzyi-0" value="Wifi troubleshooting" style="rounded=1;whiteSpace=wrap;html=1;" vertex="1" parent="WIyWlLk6GJQsqaUBKTNV-1">
          <mxGeometry x="91.5" y="40" width="97" height="30" as="geometry" />
        </mxCell>
        <mxCell id="uP9sh8tn6COjkDFqzzyi-4" style="edgeStyle=orthogonalEdgeStyle;rounded=0;orthogonalLoop=1;jettySize=auto;html=1;exitX=1;exitY=0.5;exitDx=0;exitDy=0;entryX=0;entryY=0.5;entryDx=0;entryDy=0;" edge="1" parent="WIyWlLk6GJQsqaUBKTNV-1" source="uP9sh8tn6COjkDFqzzyi-7" target="uP9sh8tn6COjkDFqzzyi-6">
          <mxGeometry relative="1" as="geometry">
            <mxPoint x="188.5" y="140" as="sourcePoint" />
            <mxPoint x="248.5" y="140" as="targetPoint" />
          </mxGeometry>
        </mxCell>
        <mxCell id="uP9sh8tn6COjkDFqzzyi-5" value="Oui" style="edgeLabel;html=1;align=center;verticalAlign=middle;resizable=0;points=[];" vertex="1" connectable="0" parent="uP9sh8tn6COjkDFqzzyi-4">
          <mxGeometry x="-0.3867" y="1" relative="1" as="geometry">
            <mxPoint y="-9" as="offset" />
          </mxGeometry>
        </mxCell>
        <mxCell id="uP9sh8tn6COjkDFqzzyi-6" value="&lt;font style=&quot;font-size: 10px;&quot;&gt;connexion possible&lt;/font&gt;" style="rhombus;whiteSpace=wrap;html=1;" vertex="1" parent="WIyWlLk6GJQsqaUBKTNV-1">
          <mxGeometry x="238.5" y="100" width="80" height="80" as="geometry" />
        </mxCell>
        <mxCell id="uP9sh8tn6COjkDFqzzyi-9" style="edgeStyle=orthogonalEdgeStyle;rounded=0;orthogonalLoop=1;jettySize=auto;html=1;exitX=0.5;exitY=1;exitDx=0;exitDy=0;entryX=0.5;entryY=0;entryDx=0;entryDy=0;" edge="1" parent="WIyWlLk6GJQsqaUBKTNV-1" source="uP9sh8tn6COjkDFqzzyi-7" target="uP9sh8tn6COjkDFqzzyi-8">
          <mxGeometry relative="1" as="geometry" />
        </mxCell>
        <mxCell id="uP9sh8tn6COjkDFqzzyi-10" value="Non" style="edgeLabel;html=1;align=center;verticalAlign=middle;resizable=0;points=[];" vertex="1" connectable="0" parent="uP9sh8tn6COjkDFqzzyi-9">
          <mxGeometry x="-0.5619" relative="1" as="geometry">
            <mxPoint x="-21" y="1" as="offset" />
          </mxGeometry>
        </mxCell>
        <mxCell id="uP9sh8tn6COjkDFqzzyi-7" value="&lt;font style=&quot;font-size: 10px;&quot;&gt;réseau visible ?&lt;/font&gt;" style="rhombus;whiteSpace=wrap;html=1;" vertex="1" parent="WIyWlLk6GJQsqaUBKTNV-1">
          <mxGeometry x="100" y="100" width="80" height="80" as="geometry" />
        </mxCell>
        <mxCell id="uP9sh8tn6COjkDFqzzyi-12" style="edgeStyle=orthogonalEdgeStyle;rounded=0;orthogonalLoop=1;jettySize=auto;html=1;exitX=0.5;exitY=1;exitDx=0;exitDy=0;entryX=0.5;entryY=0;entryDx=0;entryDy=0;" edge="1" parent="WIyWlLk6GJQsqaUBKTNV-1" source="uP9sh8tn6COjkDFqzzyi-8" target="uP9sh8tn6COjkDFqzzyi-11">
          <mxGeometry relative="1" as="geometry" />
        </mxCell>
        <mxCell id="uP9sh8tn6COjkDFqzzyi-8" value="&lt;font style=&quot;font-size: 10px;&quot;&gt;autre réseau visible ?&lt;/font&gt;" style="rhombus;whiteSpace=wrap;html=1;" vertex="1" parent="WIyWlLk6GJQsqaUBKTNV-1">
          <mxGeometry x="100" y="210" width="80" height="80" as="geometry" />
        </mxCell>
        <mxCell id="uP9sh8tn6COjkDFqzzyi-15" style="edgeStyle=orthogonalEdgeStyle;rounded=0;orthogonalLoop=1;jettySize=auto;html=1;exitX=0.5;exitY=1;exitDx=0;exitDy=0;entryX=0.5;entryY=0;entryDx=0;entryDy=0;" edge="1" parent="WIyWlLk6GJQsqaUBKTNV-1" source="uP9sh8tn6COjkDFqzzyi-11" target="uP9sh8tn6COjkDFqzzyi-14">
          <mxGeometry relative="1" as="geometry" />
        </mxCell>
        <mxCell id="uP9sh8tn6COjkDFqzzyi-16" value="Non" style="edgeLabel;html=1;align=center;verticalAlign=middle;resizable=0;points=[];" vertex="1" connectable="0" parent="uP9sh8tn6COjkDFqzzyi-15">
          <mxGeometry x="-0.3238" y="-1" relative="1" as="geometry">
            <mxPoint x="-20" y="-3" as="offset" />
          </mxGeometry>
        </mxCell>
        <mxCell id="uP9sh8tn6COjkDFqzzyi-19" style="edgeStyle=orthogonalEdgeStyle;rounded=0;orthogonalLoop=1;jettySize=auto;html=1;exitX=1;exitY=0.5;exitDx=0;exitDy=0;entryX=0;entryY=0.5;entryDx=0;entryDy=0;" edge="1" parent="WIyWlLk6GJQsqaUBKTNV-1" source="uP9sh8tn6COjkDFqzzyi-11" target="uP9sh8tn6COjkDFqzzyi-18">
          <mxGeometry relative="1" as="geometry" />
        </mxCell>
        <mxCell id="uP9sh8tn6COjkDFqzzyi-20" value="Oui" style="edgeLabel;html=1;align=center;verticalAlign=middle;resizable=0;points=[];" vertex="1" connectable="0" parent="uP9sh8tn6COjkDFqzzyi-19">
          <mxGeometry x="-0.2035" y="-1" relative="1" as="geometry">
            <mxPoint y="-11" as="offset" />
          </mxGeometry>
        </mxCell>
        <mxCell id="uP9sh8tn6COjkDFqzzyi-11" value="&lt;font style=&quot;font-size: 10px;&quot;&gt;wifi activé ?&lt;/font&gt;" style="rhombus;whiteSpace=wrap;html=1;" vertex="1" parent="WIyWlLk6GJQsqaUBKTNV-1">
          <mxGeometry x="100" y="330" width="80" height="80" as="geometry" />
        </mxCell>
        <mxCell id="uP9sh8tn6COjkDFqzzyi-13" value="Non" style="edgeLabel;html=1;align=center;verticalAlign=middle;resizable=0;points=[];" vertex="1" connectable="0" parent="WIyWlLk6GJQsqaUBKTNV-1">
          <mxGeometry x="108.50000000000023" y="189.99666666666664" as="geometry">
            <mxPoint x="6" y="109" as="offset" />
          </mxGeometry>
        </mxCell>
        <mxCell id="uP9sh8tn6COjkDFqzzyi-17" style="edgeStyle=orthogonalEdgeStyle;rounded=0;orthogonalLoop=1;jettySize=auto;html=1;exitX=0;exitY=0.5;exitDx=0;exitDy=0;entryX=0;entryY=0.5;entryDx=0;entryDy=0;" edge="1" parent="WIyWlLk6GJQsqaUBKTNV-1" source="uP9sh8tn6COjkDFqzzyi-14" target="uP9sh8tn6COjkDFqzzyi-7">
          <mxGeometry relative="1" as="geometry" />
        </mxCell>
        <mxCell id="uP9sh8tn6COjkDFqzzyi-14" value="Activer le wifi" style="shape=process;whiteSpace=wrap;html=1;backgroundOutline=1;" vertex="1" parent="WIyWlLk6GJQsqaUBKTNV-1">
          <mxGeometry x="90" y="450" width="100" height="40" as="geometry" />
        </mxCell>
        <mxCell id="uP9sh8tn6COjkDFqzzyi-21" style="edgeStyle=orthogonalEdgeStyle;rounded=0;orthogonalLoop=1;jettySize=auto;html=1;exitX=0.5;exitY=1;exitDx=0;exitDy=0;entryX=0;entryY=0.5;entryDx=0;entryDy=0;" edge="1" parent="WIyWlLk6GJQsqaUBKTNV-1" source="uP9sh8tn6COjkDFqzzyi-18" target="uP9sh8tn6COjkDFqzzyi-7">
          <mxGeometry relative="1" as="geometry">
            <Array as="points">
              <mxPoint x="269" y="520" />
              <mxPoint x="50" y="520" />
              <mxPoint x="50" y="140" />
            </Array>
          </mxGeometry>
        </mxCell>
        <mxCell id="uP9sh8tn6COjkDFqzzyi-18" value="actualiser le wifi (shut/no shut)" style="shape=process;whiteSpace=wrap;html=1;backgroundOutline=1;" vertex="1" parent="WIyWlLk6GJQsqaUBKTNV-1">
          <mxGeometry x="218.5" y="350" width="100" height="40" as="geometry" />
        </mxCell>
      </root>
    </mxGraphModel>
  </diagram>
</mxfile>
